<svg xmlns="http://www.w3.org/2000/svg" width="8.534" height="18.339" viewBox="0 0 8.534 18.339"><defs><style>.a{fill:#fff;}</style></defs><path class="a" d="M7.629,8.133h2.905c-.038.387-.072.754-.109,1.124-.063.636-.139,1.267-.189,1.9-.017.177-.063.24-.248.236-.7-.013-1.4,0-2.105,0H7.633v9.161H3.8V11.4H2V8.137H3.8c0-.131,0-.236,0-.337.025-.863-.008-1.73.088-2.581a3.264,3.264,0,0,1,3.1-2.968c1.149-.076,2.311-.013,3.482-.013v3.12H8.492a.752.752,0,0,0-.855.779C7.608,6.782,7.629,7.438,7.629,8.133Z" transform="translate(-2 -2.214)"/></svg>