<svg xmlns="http://www.w3.org/2000/svg" width="13.354" height="11.714" viewBox="0 0 13.354 11.714"><defs><style>.a{fill:#333;}</style></defs><g transform="translate(-0.025)"><path class="a" d="M1.157,6.664,6.371,11.58a.469.469,0,0,0,.657,0l5.215-4.916A3.889,3.889,0,0,0,13.379,3.9a3.874,3.874,0,0,0-1.121-2.764A3.383,3.383,0,0,0,9.808.149,4.455,4.455,0,0,0,6.745,1.434c-.015,0-.015.015-.03.015s-.015,0-.03-.015A4.431,4.431,0,0,0,3.936,0,3.949,3.949,0,0,0,1.157,1.136,3.941,3.941,0,0,0,1.157,6.664Z" transform="translate(0)"/></g></svg>