<svg xmlns="http://www.w3.org/2000/svg" width="16.67" height="16.67" viewBox="0 0 16.67 16.67"><defs><style>.a{fill:#fff;}</style></defs><path class="a" d="M-2660.061,16.67h-7.209a4.736,4.736,0,0,1-4.73-4.73V4.73A4.736,4.736,0,0,1-2667.27,0h7.209a4.736,4.736,0,0,1,4.73,4.73v7.209A4.736,4.736,0,0,1-2660.061,16.67ZM-2663.78,4.72a4,4,0,0,0-4,4,4.005,4.005,0,0,0,4,4,4,4,0,0,0,4-4A4,4,0,0,0-2663.78,4.72Zm5-2a1,1,0,0,0-1,1,1,1,0,0,0,1,1,1,1,0,0,0,1-1A1,1,0,0,0-2658.78,2.72Z" transform="translate(2672)"/></svg>