<svg xmlns="http://www.w3.org/2000/svg" width="14.801" height="14.148" viewBox="0 0 14.801 14.148"><defs><style>.a{fill:#fff;}</style></defs><g transform="translate(-1079.845 -4820.579)"><path class="a" d="M1.837,0c.124.02.249.031.37.059A1.641,1.641,0,0,1,3.1,2.716a1.675,1.675,0,0,1-1.021.553A2.083,2.083,0,0,1,.841,3.132,1.6,1.6,0,0,1-.09,1.54,1.608,1.608,0,0,1,1.314.035C1.4.02,1.485.012,1.571,0Z" transform="translate(1079.938 4820.579)"/><path class="a" d="M443.2,388.369v-9.538h3.161v1.325l.013.006c.012-.016.023-.032.034-.049a3.468,3.468,0,0,1,.931-.977,3.043,3.043,0,0,1,1.376-.5,4.058,4.058,0,0,1,1.781.164,3.176,3.176,0,0,1,1.961,1.822,4.792,4.792,0,0,1,.379,1.512c.027.293.037.589.038.883q.005,2.64,0,5.278v.078H449.7V388.3q0-2.541,0-5.082a3.105,3.105,0,0,0-.206-1.194,1.37,1.37,0,0,0-1.273-.905,1.712,1.712,0,0,0-1.722,1.079,1.9,1.9,0,0,0-.136.8q0,2.65,0,5.3v.079Z" transform="translate(641.771 4446.354)"/><path class="a" d="M16.6,398.2h3.166v9.54H16.6Z" transform="translate(1063.438 4426.983)"/></g></svg>