<svg xmlns="http://www.w3.org/2000/svg" width="41.762" height="66.66" viewBox="0 0 41.762 66.66"><defs><style>.a{fill:#333;}</style></defs><path class="a" d="M20.844,0h0C9.387,0,0,10.348,0,21.509v.074c.37,7.17,3.991,14.192,8.131,21.361s8.8,14.709,11.6,22.692a1.516,1.516,0,0,0,1.922.961,1.464,1.464,0,0,0,1.035-1.035c2.439-8.278,7.022-15.818,11.161-23.061s7.835-13.97,7.909-21.066h0C41.762,10.348,32.375,0,20.844,0Zm0,36.218A14.783,14.783,0,1,1,35.627,21.435,14.779,14.779,0,0,1,20.844,36.218Z"/></svg>