<svg xmlns="http://www.w3.org/2000/svg" width="141.744" height="140.654" viewBox="0 0 141.744 140.654"><defs><style>.a,.b{fill:#333;}.a{font-size:48px;font-family:DINCondensed-Bold, DIN Condensed;font-weight:700;}</style></defs><g transform="translate(-272.152 -85.285) rotate(-7)"><text class="a" transform="translate(327.891 210.552) rotate(-22)"><tspan x="-39.552" y="0">LOGO</tspan></text><g transform="translate(228.399 170.793) rotate(-30)"><g transform="translate(2.65)"><path class="b" d="M4.029,43.509a2.509,2.509,0,0,1-.922-.576,2.067,2.067,0,0,1-.576-.807A2.171,2.171,0,0,1,2.3,41.2a1.709,1.709,0,0,1,.115-.807,2.888,2.888,0,0,1,.461-.807,3.055,3.055,0,0,1,.691-.576c.346,0,.691-.115.922-.115a3.19,3.19,0,0,1,1.037.115l.461.115-.461,1.383L5.066,40.4a.974.974,0,0,0-.807,0,1.15,1.15,0,0,0-.461.576.735.735,0,0,0,0,.691,1.15,1.15,0,0,0,.576.461l4.955,1.729a.974.974,0,0,0,.807,0,1.15,1.15,0,0,0,.461-.576.735.735,0,0,0,0-.691,1.15,1.15,0,0,0-.576-.461L8.292,41.55l-.346.922-1.152-.461.807-2.42,2.881,1.037a2.509,2.509,0,0,1,.922.576,2.067,2.067,0,0,1,.576.807,2.171,2.171,0,0,1,.23.922,1.709,1.709,0,0,1-.115.807,2.888,2.888,0,0,1-.461.807,3.055,3.055,0,0,1-.691.576,2.171,2.171,0,0,1-.922.23,3.191,3.191,0,0,1-1.037-.115Z" transform="translate(-2.3 5.926)"/><path class="b" d="M7.479,34.694A5.012,5.012,0,0,1,6.672,34a2.888,2.888,0,0,1-.461-.807,1.272,1.272,0,0,1,0-.922,1.665,1.665,0,0,1,.23-.807,3.055,3.055,0,0,1,.576-.691,1.857,1.857,0,0,1,.807-.461,2.246,2.246,0,0,1,.922-.115,1.859,1.859,0,0,1,1.037.346l4.609,2.42a2.5,2.5,0,0,1,.807.691,1.245,1.245,0,0,1,.346.807,1.272,1.272,0,0,1,0,.922,1.666,1.666,0,0,1-.23.807,3.055,3.055,0,0,1-.576.691,1.857,1.857,0,0,1-.807.461,2.537,2.537,0,0,1-.922.115,1.859,1.859,0,0,1-1.037-.346Zm5.3,1.152c.346.115.576.23.807.115a1.15,1.15,0,0,0,.576-.461,1.462,1.462,0,0,0,.115-.691c0-.23-.23-.461-.576-.576l-4.609-2.42c-.346-.115-.576-.23-.807-.115a1.15,1.15,0,0,0-.576.461,1.462,1.462,0,0,0-.115.691c0,.23.23.461.576.576Z" transform="translate(-1.717 4.601)"/><path class="b" d="M19.558,26.155a3.055,3.055,0,0,1,.576.691,2.136,2.136,0,0,1,.23.807v.922a5.618,5.618,0,0,1-.346.807,3.055,3.055,0,0,1-.691.576,2.136,2.136,0,0,1-.807.23H17.6a1.857,1.857,0,0,1-.807-.461L10.8,25l.922-1.152L17.6,28.46a.764.764,0,0,0,.807.23.634.634,0,0,0,.576-.346,1.638,1.638,0,0,0,.23-.691c0-.23-.23-.461-.461-.691l-5.877-4.609L13.8,21.2Z" transform="translate(-1.005 3.23)"/><path class="b" d="M17.1,17.4l1.613-1.5c1.268-1.152,2.535-.922,3.8.461a3.892,3.892,0,0,1,.807,1.268,2.809,2.809,0,0,1,0,1.383l4.148,2.3-1.152,1.037-3.8-2.189-.576.576,2.881,3.111-1.037.922Zm4.033,2.3.576-.576a.617.617,0,0,0,.346-.461.351.351,0,0,0,0-.461.874.874,0,0,0-.23-.461c-.115-.115-.23-.346-.461-.461-.115-.23-.346-.346-.461-.461a.874.874,0,0,0-.461-.23h-.461a2.519,2.519,0,0,1-.576.346l-.576.461Z" transform="translate(-0.045 2.309)"/><path class="b" d="M24.8,11.142l1.152-.691,4.264,3.457h0L28.948,8.491,30.1,7.8l5.3,8.3-1.152.807-3.227-5.07h0l1.037,4.379-.576.346-3.457-2.881h0l3.227,5.07-1.152.807Z" transform="translate(1.128 1.188)"/><path class="b" d="M34.7,5.313,38.618,3.7l.461,1.268L36.544,6,37.7,8.655,40,7.733,40.462,9l-2.3.922,1.152,2.65,2.535-1.037.576,1.268L38.5,14.417Z" transform="translate(2.636 0.564)"/><path class="b" d="M44.559,3.274l-1.613.346L42.6,2.352,47.094,1.2l.346,1.268-1.613.346,2.074,8.3-1.383.346Z" transform="translate(3.839 0.183)"/><path class="b" d="M58.3,0l4.264.115V1.5H59.8V4.379h2.42V5.762H59.8V8.643h2.766v1.383L58.415,9.91Z" transform="translate(6.231)"/><path class="b" d="M68.281,5.455,67.244.5l1.5.23.576,3.111,1.613-2.65,1.5.23L69.664,5.686,70.816,11.1l-1.5-.23-.691-3.457L66.9,10.525l-1.5-.23Z" transform="translate(7.313 0.076)"/><path class="b" d="M77.042,2.7,79,3.391a2.316,2.316,0,0,1,.922.461,2.067,2.067,0,0,1,.576.807,3.365,3.365,0,0,1,.23,1.037,3.984,3.984,0,0,1-.346,1.383,2.171,2.171,0,0,1-.461,1.037,3.055,3.055,0,0,1-.576.691,2.316,2.316,0,0,1-.922.461,2.491,2.491,0,0,1-1.268-.115l-.807-.346-1.268,3.688L73.7,12.034Zm-.23,4.84.691.23a1.462,1.462,0,0,0,.691.115.6.6,0,0,0,.461-.23A1.591,1.591,0,0,0,79,7.194c.115-.23.115-.346.23-.576s.115-.461.23-.576c0-.23.115-.346.115-.576A.874.874,0,0,0,79.346,5a2.519,2.519,0,0,0-.576-.346l-.691-.23Z" transform="translate(8.577 0.411)"/><path class="b" d="M86.009,6.2,89.7,8.159l-.576,1.152L86.7,8.044l-1.383,2.535,2.189,1.152-.576,1.152-2.189-1.152-1.383,2.535,2.42,1.268L85.088,16.8,81.4,14.843Z" transform="translate(9.75 0.945)"/><path class="b" d="M94.092,10.9l1.844,1.383c1.268,1.037,1.383,2.3.23,3.8a3.269,3.269,0,0,1-1.152,1.037,1.787,1.787,0,0,1-1.383.23l-1.5,4.494-1.152-.922,1.5-4.148-.691-.461-2.535,3.342L88.1,18.851Zm-1.5,4.379.691.461c.23.115.346.23.576.23h.461c.115,0,.23-.115.461-.23.115-.115.23-.346.461-.461.115-.23.23-.346.346-.576a.693.693,0,0,0,.115-.461.693.693,0,0,0-.115-.461c-.115-.115-.23-.346-.461-.461l-.576-.461Z" transform="translate(10.771 1.661)"/><path class="b" d="M101.629,17.1l1.037,1.037-7.029,6.914L94.6,24.014Z" transform="translate(11.761 2.605)"/><path class="b" d="M106.436,22.3l2.535,3.342-1.037.807-1.729-2.189-2.3,1.729,1.5,1.959-1.037.807-1.5-1.959-2.3,1.729,1.729,2.189-1.152.807L98.6,28.177Z" transform="translate(12.371 3.397)"/><path class="b" d="M111.643,29.8l.576,1.152-4.264,4.609h0l5.3-2.766.691,1.268-8.758,4.609-.576-1.152,4.264-4.725h0l-5.186,2.766L103,34.294Z" transform="translate(13.041 4.54)"/><path class="b" d="M110.2,45.607a2.246,2.246,0,0,1-.922.115,1.665,1.665,0,0,1-.807-.23c-.23-.115-.461-.346-.691-.461a1.857,1.857,0,0,1-.461-.807,2.881,2.881,0,0,1,0-1.613,2.411,2.411,0,0,1,.461-.691,2.228,2.228,0,0,1,1.037-.576L114,39.615a2.537,2.537,0,0,1,.922-.115,1.665,1.665,0,0,1,.807.23,3.055,3.055,0,0,1,.691.576,1.857,1.857,0,0,1,.461.807,2.537,2.537,0,0,1,.115.922,1.666,1.666,0,0,1-.23.807,3.055,3.055,0,0,1-.576.691,2.888,2.888,0,0,1-.807.461l-.576.23-.461-1.383.461-.115a1.15,1.15,0,0,0,.576-.461,1.462,1.462,0,0,0,.115-.691c-.115-.346-.23-.576-.576-.576a1.961,1.961,0,0,0-.807.115l-4.725,1.613a1.15,1.15,0,0,0-.576.461,1.462,1.462,0,0,0-.115.691.4.4,0,0,0,.115.23l.23.23a.423.423,0,0,0,.346.115.693.693,0,0,0,.461-.115l.461-.115.461,1.383Z" transform="translate(13.681 6.018)"/><path class="b" d="M118.68,48.2l.691,4.148-1.268.23-.461-2.766-2.881.461.346,2.42-1.268.23-.346-2.42-2.881.461.461,2.766-1.383.23L109,49.813Z" transform="translate(13.955 7.343)"/></g><path class="b" d="M3.6,52.415a1.857,1.857,0,0,1,.807.461,3.055,3.055,0,0,1,.576.691,2.136,2.136,0,0,1,.23.807,2.537,2.537,0,0,1-.115.922,1.857,1.857,0,0,1-.461.807,3.055,3.055,0,0,1-.691.576,2.136,2.136,0,0,1-.807.23,2.537,2.537,0,0,1-.922-.115,1.857,1.857,0,0,1-.807-.461,3.055,3.055,0,0,1-.576-.691,2.136,2.136,0,0,1-.23-.807,2.537,2.537,0,0,1,.115-.922,1.857,1.857,0,0,1,.461-.807,3.055,3.055,0,0,1,.691-.576,2.136,2.136,0,0,1,.807-.23A2.864,2.864,0,0,1,3.6,52.415Z" transform="translate(0.091 7.968)"/><path class="b" d="M115.9,62.515a1.857,1.857,0,0,1,.807.461,3.055,3.055,0,0,1,.576.691,2.136,2.136,0,0,1,.23.807,2.537,2.537,0,0,1-.115.922,1.857,1.857,0,0,1-.461.807,3.056,3.056,0,0,1-.691.576,2.137,2.137,0,0,1-.807.23,2.537,2.537,0,0,1-.922-.115,1.857,1.857,0,0,1-.807-.461,3.055,3.055,0,0,1-.576-.691,2.136,2.136,0,0,1-.23-.807,2.537,2.537,0,0,1,.115-.922,1.857,1.857,0,0,1,.461-.807,3.055,3.055,0,0,1,.691-.576,2.136,2.136,0,0,1,.807-.23A2.864,2.864,0,0,1,115.9,62.515Z" transform="translate(17.2 9.506)"/><g transform="translate(0 76.746)"><path class="b" d="M115.4,75.629a2.509,2.509,0,0,1,.922.576,2.067,2.067,0,0,1,.576.807,2.136,2.136,0,0,1,.23.807,1.709,1.709,0,0,1-.115.807,2.888,2.888,0,0,1-.461.807,3.055,3.055,0,0,1-.691.576,2.171,2.171,0,0,1-.922.23,3.19,3.19,0,0,1-1.037-.115l-.461-.115.461-1.383.461.115a.974.974,0,0,0,.807,0,1.151,1.151,0,0,0,.461-.576.735.735,0,0,0,0-.691,1.15,1.15,0,0,0-.576-.461L110.1,75.4a.974.974,0,0,0-.807,0,1.15,1.15,0,0,0-.461.576.735.735,0,0,0,0,.691,1.15,1.15,0,0,0,.576.461l1.729.576.346-1.037,1.152.346-.807,2.42-3-.922a2.509,2.509,0,0,1-.922-.576,2.067,2.067,0,0,1-.576-.807,2.137,2.137,0,0,1-.23-.807,1.709,1.709,0,0,1,.115-.807,2.888,2.888,0,0,1,.461-.807,3.055,3.055,0,0,1,.691-.576,2.171,2.171,0,0,1,.922-.23,3.19,3.19,0,0,1,1.037.115Z" transform="translate(16.316 -65.488)"/><path class="b" d="M111.993,84.666a5.012,5.012,0,0,1,.807.691,2.888,2.888,0,0,1,.461.807,1.272,1.272,0,0,1,0,.922,1.665,1.665,0,0,1-.23.807,3.055,3.055,0,0,1-.576.691,1.857,1.857,0,0,1-.807.461,2.246,2.246,0,0,1-.922.115,1.859,1.859,0,0,1-1.037-.346l-4.609-2.42a2.5,2.5,0,0,1-.807-.691,2.888,2.888,0,0,1-.461-.807,1.272,1.272,0,0,1,0-.922,1.665,1.665,0,0,1,.23-.807,3.055,3.055,0,0,1,.576-.691,1.857,1.857,0,0,1,.807-.461,2.246,2.246,0,0,1,.922-.115,1.859,1.859,0,0,1,1.037.346Zm-5.3-1.152c-.346-.115-.576-.23-.807-.115a1.15,1.15,0,0,0-.576.461,1.462,1.462,0,0,0-.115.691c0,.23.23.461.576.576l4.609,2.42c.346.115.576.23.807.115a1.15,1.15,0,0,0,.576-.461,1.462,1.462,0,0,0,.115-.691c0-.23-.23-.461-.576-.576Z" transform="translate(15.802 -64.269)"/><path class="b" d="M100.107,93.533a3.055,3.055,0,0,1-.576-.691,2.136,2.136,0,0,1-.23-.807v-.922a5.617,5.617,0,0,1,.346-.807,1.694,1.694,0,0,1,.691-.576,2.136,2.136,0,0,1,.807-.23h.922a5.617,5.617,0,0,1,.807.346l6.107,4.609-.807,1.152-5.992-4.494a.764.764,0,0,0-.807-.23.634.634,0,0,0-.576.346,1.638,1.638,0,0,0-.23.691c0,.23.23.461.461.691l5.992,4.379-.807,1.152Z" transform="translate(15.128 -63.111)"/><path class="b" d="M102.771,102.229l-1.613,1.613q-1.729,1.729-3.8-.346a3.892,3.892,0,0,1-.807-1.268,2.809,2.809,0,0,1,0-1.383L92.4,98.657l1.037-1.037,3.8,2.189.576-.576-2.881-3.111,1.037-.922Zm-4.033-2.189-.576.576a.618.618,0,0,0-.346.461.351.351,0,0,0,0,.461.874.874,0,0,0,.23.461c.115.115.23.346.461.461.115.23.346.346.461.461a.874.874,0,0,0,.461.23h.461c.115-.115.346-.23.461-.346l.576-.461Z" transform="translate(14.077 -62.243)"/><path class="b" d="M95.217,108.912l-1.152.691-4.379-3.342h0l1.383,5.3-1.152.691-5.416-8.3,1.152-.807,3.227,5.07h0l-1.152-4.264.576-.346,3.457,2.766h0l-3.227-5.07,1.152-.807Z" transform="translate(12.873 -61.436)"/><path class="b" d="M84.951,114.8l-3.918,1.613-.576-1.268L82.992,114l-1.152-2.65-2.189.922L79.074,111l2.189-.922-1.152-2.65-2.535,1.152L77,107.313l3.918-1.613Z" transform="translate(11.73 -60.643)"/><path class="b" d="M74.857,116.912l1.613-.461.346,1.268-4.494,1.152-.346-1.268,1.613-.461-2.189-8.3,1.383-.346Z" transform="translate(10.877 -60.217)"/><path class="b" d="M60.948,120.41H56.8v-1.383h2.766v-2.881h-2.42v-1.383h2.42v-2.881H56.8V110.5h4.148Z" transform="translate(8.653 -59.912)"/><path class="b" d="M51.333,115.131l1.037,4.955-1.5-.23-.576-3-1.5,2.766-1.5-.23,2.65-4.379L48.8,109.6l1.5.23.691,3.457,1.729-3.227,1.5.23Z" transform="translate(7.206 -60.049)"/><path class="b" d="M42.588,118.01l-1.959-.691a2.316,2.316,0,0,1-.922-.461,2.067,2.067,0,0,1-.576-.807,3.365,3.365,0,0,1-.23-1.037,3.984,3.984,0,0,1,.346-1.383,2.171,2.171,0,0,1,.461-1.037,3.055,3.055,0,0,1,.576-.691,1.423,1.423,0,0,1,.922-.461,2.491,2.491,0,0,1,1.268.115l.691.23,1.152-3.687,1.383.461Zm.115-4.955-.691-.23a1.462,1.462,0,0,0-.691-.115.815.815,0,0,0-.691.691,4.806,4.806,0,0,0-.23.691c-.115.23-.115.461-.23.576,0,.23-.115.346,0,.576s.115.346.23.461a2.519,2.519,0,0,0,.576.346l.691.23Z" transform="translate(5.926 -60.278)"/><path class="b" d="M33.688,114.6,30,112.643l.576-1.152,2.535,1.268,1.268-2.535-2.189-1.152.576-1.152,2.189,1.152,1.268-2.535-2.535-1.268L34.379,104l3.688,1.959Z" transform="translate(4.57 -60.902)"/><path class="b" d="M25.687,110.147l-1.844-1.383c-1.383-1.037-1.383-2.3-.346-3.8a4.4,4.4,0,0,1,1.037-1.037,1.787,1.787,0,0,1,1.383-.23L27.3,99.2l1.152.922L27.07,104.27l.691.461,2.535-3.342,1.152.807Zm1.5-4.379-.691-.461c-.23-.115-.346-.23-.576-.23h-.461c-.115.115-.23.115-.461.346-.115.115-.23.346-.461.461-.115.23-.23.346-.346.576a.979.979,0,0,0,0,.922c.115.115.23.346.461.461l.691.346Z" transform="translate(3.467 -61.634)"/><path class="b" d="M17.937,103.566,16.9,102.529,23.814,95.5l1.037,1.037Z" transform="translate(2.575 -62.197)"/><path class="b" d="M13.335,98.734,10.8,95.392l1.037-.807,1.729,2.189,2.3-1.729-1.5-1.959,1.037-.807,1.5,1.959,2.3-1.729-1.729-2.189,1.152-.922,2.535,3.342Z" transform="translate(1.645 -63.127)"/><path class="b" d="M8.12,91.188l-.691-1.152,4.148-4.725h0L6.391,88.192,5.7,86.925,14.343,82.2l.691,1.152-4.148,4.725h0L16.071,85.2l.691,1.268Z" transform="translate(0.868 -64.223)"/><path class="b" d="M9.184,75.122a1.3,1.3,0,0,1,.922-.115,7.344,7.344,0,0,1,.807.23c.23.115.461.346.691.461a1.857,1.857,0,0,1,.461.807,2.881,2.881,0,0,1,0,1.613,6.61,6.61,0,0,1-.461.807,1.551,1.551,0,0,1-1.037.576L5.5,81.344a2.537,2.537,0,0,1-.922.115,1.665,1.665,0,0,1-.807-.23,3.055,3.055,0,0,1-.691-.576,1.857,1.857,0,0,1-.461-.807,2.537,2.537,0,0,1-.115-.922,1.665,1.665,0,0,1,.23-.807,2.067,2.067,0,0,1,.576-.807,1.857,1.857,0,0,1,.807-.461l.576-.23L5.15,78l-.461.115a2.514,2.514,0,0,0-.576.461C4,78.694,4,79.04,4,79.27a.947.947,0,0,0,.576.576,1.961,1.961,0,0,0,.807-.115l4.725-1.613a1.15,1.15,0,0,0,.576-.461.735.735,0,0,0,0-.691.4.4,0,0,0-.115-.23l-.23-.23a.423.423,0,0,0-.346-.115.693.693,0,0,0-.461.115l-.461.115-.461-1.383Z" transform="translate(0.381 -65.327)"/><path class="b" d="M.807,72.592,0,68.444l1.268-.23.461,2.766L4.609,70.4l-.461-2.42,1.268-.23.461,2.42L8.758,69.6,8.3,66.83,9.68,66.6l.807,4.148Z" transform="translate(0 -66.6)"/></g></g></g></svg>