<svg xmlns="http://www.w3.org/2000/svg" width="15.597" height="12.725" viewBox="0 0 15.597 12.725"><defs><style>.a{fill:#fff;}</style></defs><path class="a" d="M10.566,0h.673c.012.009.024.021.04.021a3.223,3.223,0,0,1,1.887.923.212.212,0,0,0,.171.043,6.109,6.109,0,0,0,1.78-.667c.04-.021.083-.04.15-.07a3.365,3.365,0,0,1-1.324,1.728A5.929,5.929,0,0,0,15.7,1.514a6.475,6.475,0,0,1-1.483,1.566.244.244,0,0,0-.107.214,13.107,13.107,0,0,1-.064,1.342,9.326,9.326,0,0,1-2.571,5.406,8.668,8.668,0,0,1-6.063,2.672,8.949,8.949,0,0,1-4.217-.819C.819,11.723.464,11.518.1,11.329c.006-.012.009-.028.015-.04a6.668,6.668,0,0,0,2.458-.211,6.515,6.515,0,0,0,2.22-1.125,3.188,3.188,0,0,1-2.969-2.22,3.353,3.353,0,0,0,1.41-.073A3.2,3.2,0,0,1,1.381,6.516a3.1,3.1,0,0,1-.7-2.039,3.255,3.255,0,0,0,1.41.388A3.22,3.22,0,0,1,1.143.608a9.182,9.182,0,0,0,6.6,3.339c-.021-.226-.052-.428-.061-.63A3.194,3.194,0,0,1,9.9.156C10.117.092,10.343.052,10.566,0Z" transform="translate(-0.1)"/></svg>